<svg xmlns="http://www.w3.org/2000/svg" width="712.501" height="784.758" viewBox="0 0 712.501 784.758">
  <path id="União_1" data-name="União 1" d="M557.5-792.5h-142v-71.25h0v-142.5h0v-142.5h0v-142.5h0v-142.5h0V-1505h2.251v-71.25h142V-1505h69v71.251h0v142.5h0v142.5h0v142.5h0v142.5h0v71.25Zm0-71.25h0Zm0-142.5h0Zm0-142.5h0Zm0-142.5h0Zm0-142.5h0ZM488.5-1505h0ZM344.252-792.5v-71.25H415.5v71.25Zm-71.25,0v-71.25h71.25v71.25Zm-71.251,0H131v-71.25h0v-142.5h0v-142.5h0v-142.5h0v-142.5h0V-1505h2.251v-71.25h142V-1505H273v71.251h0v142.5h0v142.5h0v142.5h0v142.5h0v71.25ZM204-1505h0ZM59.752-792.5v-71.25H131v71.25Zm-71.251,0h-71.25v-71.25h142.5v71.25Zm355.751-71.25v-142.5H415.5v142.5Zm-71.25,0v-142.5h71.25v142.5Zm-213.25,0v-142.5H131v142.5Zm-71.251,0h-71.25v-142.5h142.5v142.5Zm355.751-142.5v-142.5H415.5v142.5Zm-71.25,0v-142.5h71.25v142.5Zm-213.25,0v-142.5H131v142.5Zm-71.251,0h-71.25v-142.5h142.5v142.5Zm355.751-142.5v-142.5H415.5v142.5Zm-71.25,0v-142.5h71.25v142.5Zm-213.25,0v-142.5H131v142.5Zm-71.251,0h-71.25v-142.5h142.5v142.5Zm355.751-142.5v-142.5H415.5v142.5Zm-71.25,0v-142.5h71.25v142.5Zm-213.25,0v-142.5H131v142.5Zm-71.251,0h-71.25v-142.5h142.5v142.5Zm355.751-142.5V-1505H346.5v-71.25h71.251V-1505H415.5v71.251Zm-71.25,0V-1505h2.25v-71.25H346.5V-1505h-2.251v71.251Zm-213.25,0V-1505H62v-71.25h71.25V-1505H131v71.251Zm-71.251,0h-71.25V-1505h.251v-71.25H62V-1505H59.752v71.251Z" transform="translate(83.249 1576.754)" fill="#fb5223" stroke="rgba(0,0,0,0)" stroke-miterlimit="10" stroke-width="1"/>
</svg>
