<svg xmlns="http://www.w3.org/2000/svg" width="243.22" height="267.4" viewBox="0 0 243.22 267.4">
  <g id="Grupo_14" data-name="Grupo 14" transform="translate(-406.1 -1740.1)">
    <g id="Grupo_10" data-name="Grupo 10">
      <rect id="Retângulo_268" data-name="Retângulo 268" width="13.13" height="13.13" transform="translate(409.77 1740.1)" fill="#8019b3"/>
      <rect id="Retângulo_269" data-name="Retângulo 269" width="13.13" height="13.13" transform="translate(422.89 1740.1)" fill="#8019b3"/>
      <rect id="Retângulo_270" data-name="Retângulo 270" width="13.13" height="13.13" transform="translate(462.28 1740.1)" fill="#fb5223"/>
      <rect id="Retângulo_271" data-name="Retângulo 271" width="13.13" height="13.13" transform="translate(475.41 1740.1)" fill="#fb5223"/>
      <rect id="Retângulo_272" data-name="Retângulo 272" width="13.13" height="13.13" transform="translate(541.06 1740.1)" fill="#ffc31f"/>
      <rect id="Retângulo_273" data-name="Retângulo 273" width="13.13" height="13.13" transform="translate(567.32 1740.1)" fill="#8ac926"/>
      <rect id="Retângulo_274" data-name="Retângulo 274" width="13.13" height="13.13" transform="translate(580.44 1740.1)" fill="#8ac926"/>
      <rect id="Retângulo_275" data-name="Retângulo 275" width="13.13" height="13.13" transform="translate(593.57 1740.1)" fill="#8ac926"/>
      <rect id="Retângulo_276" data-name="Retângulo 276" width="13.13" height="13.13" transform="translate(619.83 1740.1)" fill="#1985a1"/>
      <rect id="Retângulo_277" data-name="Retângulo 277" width="13.13" height="13.13" transform="translate(632.96 1740.1)" fill="#1985a1"/>
      <rect id="Retângulo_278" data-name="Retângulo 278" width="13.13" height="13.13" transform="translate(436.02 1753.22)" fill="#8019b3"/>
      <rect id="Retângulo_279" data-name="Retângulo 279" width="13.13" height="13.13" transform="translate(462.28 1753.22)" fill="#fb5223"/>
      <rect id="Retângulo_280" data-name="Retângulo 280" width="13.13" height="13.13" transform="translate(475.41 1753.22)" fill="#fb5223"/>
      <rect id="Retângulo_281" data-name="Retângulo 281" width="13.13" height="13.13" transform="translate(501.67 1753.22)" fill="#ffc31f"/>
      <rect id="Retângulo_282" data-name="Retângulo 282" width="13.13" height="13.13" transform="translate(527.93 1753.22)" fill="#ffc31f"/>
      <rect id="Retângulo_283" data-name="Retângulo 283" width="13.13" height="13.13" transform="translate(541.06 1753.22)" fill="#ffc31f"/>
      <rect id="Retângulo_284" data-name="Retângulo 284" width="13.13" height="13.13" transform="translate(567.32 1753.22)" fill="#8ac926"/>
      <rect id="Retângulo_285" data-name="Retângulo 285" width="13.13" height="13.13" transform="translate(593.57 1753.22)" fill="#1985a1"/>
      <rect id="Retângulo_286" data-name="Retângulo 286" width="13.13" height="13.13" transform="translate(632.96 1753.22)" fill="#1985a1"/>
      <rect id="Retângulo_287" data-name="Retângulo 287" width="13.13" height="13.13" transform="translate(409.77 1766.35)" fill="#8019b3"/>
      <rect id="Retângulo_288" data-name="Retângulo 288" width="13.13" height="13.13" transform="translate(449.15 1766.35)" fill="#8019b3"/>
      <rect id="Retângulo_289" data-name="Retângulo 289" width="13.13" height="13.13" transform="translate(462.28 1766.35)" fill="#fb5223"/>
      <rect id="Retângulo_290" data-name="Retângulo 290" width="13.13" height="13.13" transform="translate(488.54 1766.35)" fill="#fb5223"/>
      <rect id="Retângulo_291" data-name="Retângulo 291" width="13.13" height="13.13" transform="translate(501.67 1766.35)" fill="#fb5223"/>
      <rect id="Retângulo_292" data-name="Retângulo 292" width="13.13" height="13.13" transform="translate(554.19 1766.35)" fill="#8ac926"/>
      <rect id="Retângulo_293" data-name="Retângulo 293" width="13.13" height="13.13" transform="translate(567.32 1766.35)" fill="#8ac926"/>
      <rect id="Retângulo_294" data-name="Retângulo 294" width="13.13" height="13.13" transform="translate(580.44 1766.35)" fill="#8ac926"/>
      <rect id="Retângulo_295" data-name="Retângulo 295" width="13.13" height="13.13" transform="translate(606.7 1766.35)" fill="#1985a1"/>
      <rect id="Retângulo_296" data-name="Retângulo 296" width="13.13" height="13.13" transform="translate(619.83 1766.35)" fill="#1985a1"/>
      <rect id="Retângulo_297" data-name="Retângulo 297" width="13.13" height="13.13" transform="translate(475.41 1779.48)" fill="#fb5223"/>
      <rect id="Retângulo_298" data-name="Retângulo 298" width="13.13" height="13.13" transform="translate(488.54 1779.48)" fill="#fb5223"/>
      <rect id="Retângulo_299" data-name="Retângulo 299" width="13.13" height="13.13" transform="translate(501.67 1779.48)" fill="#ffc31f"/>
      <rect id="Retângulo_300" data-name="Retângulo 300" width="13.13" height="13.13" transform="translate(514.8 1779.48)" fill="#ffc31f"/>
      <rect id="Retângulo_301" data-name="Retângulo 301" width="13.13" height="13.13" transform="translate(541.06 1779.48)" fill="#ffc31f"/>
      <rect id="Retângulo_302" data-name="Retângulo 302" width="13.13" height="13.13" transform="translate(554.19 1779.48)" fill="#8ac926"/>
      <rect id="Retângulo_303" data-name="Retângulo 303" width="13.13" height="13.13" transform="translate(567.32 1779.48)" fill="#8ac926"/>
      <rect id="Retângulo_304" data-name="Retângulo 304" width="13.13" height="13.13" transform="translate(580.44 1779.48)" fill="#8ac926"/>
      <rect id="Retângulo_305" data-name="Retângulo 305" width="13.13" height="13.13" transform="translate(593.57 1779.48)" fill="#8ac926"/>
      <rect id="Retângulo_306" data-name="Retângulo 306" width="13.13" height="13.13" transform="translate(409.77 1792.61)" fill="#8019b3"/>
      <rect id="Retângulo_307" data-name="Retângulo 307" width="13.13" height="13.13" transform="translate(422.89 1792.61)" fill="#8019b3"/>
      <rect id="Retângulo_308" data-name="Retângulo 308" width="13.13" height="13.13" transform="translate(436.02 1792.61)" fill="#8019b3"/>
      <rect id="Retângulo_309" data-name="Retângulo 309" width="13.13" height="13.13" transform="translate(501.67 1792.61)" fill="#ffc31f"/>
      <rect id="Retângulo_310" data-name="Retângulo 310" width="13.13" height="13.13" transform="translate(541.06 1792.61)" fill="#ffc31f"/>
      <rect id="Retângulo_311" data-name="Retângulo 311" width="13.13" height="13.13" transform="translate(567.32 1792.61)" fill="#8ac926"/>
      <rect id="Retângulo_312" data-name="Retângulo 312" width="13.13" height="13.13" transform="translate(580.44 1792.61)" fill="#8ac926"/>
      <rect id="Retângulo_313" data-name="Retângulo 313" width="13.13" height="13.13" transform="translate(619.83 1792.61)" fill="#1985a1"/>
      <rect id="Retângulo_314" data-name="Retângulo 314" width="13.13" height="13.13" transform="translate(632.96 1792.61)" fill="#1985a1"/>
      <rect id="Retângulo_315" data-name="Retângulo 315" width="13.13" height="13.13" transform="translate(449.15 1805.74)" fill="#fb5223"/>
      <rect id="Retângulo_316" data-name="Retângulo 316" width="13.13" height="13.13" transform="translate(462.28 1805.74)" fill="#fb5223"/>
      <rect id="Retângulo_317" data-name="Retângulo 317" width="13.13" height="13.13" transform="translate(475.41 1805.74)" fill="#fb5223"/>
      <rect id="Retângulo_318" data-name="Retângulo 318" width="13.13" height="13.13" transform="translate(488.54 1805.74)" fill="#fb5223"/>
      <rect id="Retângulo_319" data-name="Retângulo 319" width="13.13" height="13.13" transform="translate(580.44 1805.74)" fill="#8ac926"/>
      <rect id="Retângulo_320" data-name="Retângulo 320" width="13.13" height="13.13" transform="translate(593.57 1805.74)" fill="#1985a1"/>
      <rect id="Retângulo_321" data-name="Retângulo 321" width="13.13" height="13.13" transform="translate(619.83 1805.74)" fill="#1985a1"/>
      <rect id="Retângulo_322" data-name="Retângulo 322" width="13.13" height="13.13" transform="translate(409.77 1818.87)" fill="#8019b3"/>
      <rect id="Retângulo_323" data-name="Retângulo 323" width="13.13" height="13.13" transform="translate(436.02 1818.87)" fill="#8019b3"/>
      <rect id="Retângulo_324" data-name="Retângulo 324" width="13.13" height="13.13" transform="translate(449.15 1818.87)" fill="#8019b3"/>
      <rect id="Retângulo_325" data-name="Retângulo 325" width="13.13" height="13.13" transform="translate(462.28 1818.87)" fill="#fb5223"/>
      <rect id="Retângulo_326" data-name="Retângulo 326" width="13.13" height="13.13" transform="translate(488.54 1818.87)" fill="#fb5223"/>
      <rect id="Retângulo_327" data-name="Retângulo 327" width="13.13" height="13.13" transform="translate(501.67 1818.87)" fill="#ffc31f"/>
      <rect id="Retângulo_328" data-name="Retângulo 328" width="13.13" height="13.13" transform="translate(514.8 1818.87)" fill="#ffc31f"/>
      <rect id="Retângulo_329" data-name="Retângulo 329" width="13.13" height="13.13" transform="translate(527.93 1818.87)" fill="#ffc31f"/>
      <rect id="Retângulo_330" data-name="Retângulo 330" width="13.13" height="13.13" transform="translate(541.06 1818.87)" fill="#ffc31f"/>
      <rect id="Retângulo_331" data-name="Retângulo 331" width="13.13" height="13.13" transform="translate(567.32 1818.87)" fill="#8ac926"/>
      <rect id="Retângulo_332" data-name="Retângulo 332" width="13.13" height="13.13" transform="translate(593.57 1818.87)" fill="#8ac926"/>
      <rect id="Retângulo_333" data-name="Retângulo 333" width="13.13" height="13.13" transform="translate(606.7 1818.87)" fill="#1985a1"/>
      <rect id="Retângulo_334" data-name="Retângulo 334" width="13.13" height="13.13" transform="translate(632.96 1818.87)" fill="#1985a1"/>
      <rect id="Retângulo_335" data-name="Retângulo 335" width="13.13" height="13.13" transform="translate(422.89 1832)" fill="#8019b3"/>
      <rect id="Retângulo_336" data-name="Retângulo 336" width="13.13" height="13.13" transform="translate(436.02 1832)" fill="#8019b3"/>
      <rect id="Retângulo_337" data-name="Retângulo 337" width="13.13" height="13.13" transform="translate(488.54 1832)" fill="#fb5223"/>
      <rect id="Retângulo_338" data-name="Retângulo 338" width="13.13" height="13.13" transform="translate(501.67 1832)" fill="#ffc31f"/>
      <rect id="Retângulo_339" data-name="Retângulo 339" width="13.13" height="13.13" transform="translate(514.8 1832)" fill="#ffc31f"/>
      <rect id="Retângulo_340" data-name="Retângulo 340" width="13.13" height="13.13" transform="translate(567.32 1832)" fill="#8ac926"/>
      <rect id="Retângulo_341" data-name="Retângulo 341" width="13.13" height="13.13" transform="translate(580.44 1832)" fill="#8ac926"/>
    </g>
    <g id="Grupo_11" data-name="Grupo 11">
      <path id="Caminho_10" data-name="Caminho 10" d="M406.76,1969.47v-74.59a31.227,31.227,0,0,1,3.93-15.77,29.03,29.03,0,0,1,10.65-10.82,29.532,29.532,0,0,1,15.24-3.94h34.85v14.26H438.39q-7.215,0-11.55,4.61a16.319,16.319,0,0,0-4.34,11.66v21.57h48.84v13.13l-48.84-.26v40.15Z"/>
      <path id="Caminho_11" data-name="Caminho 11" d="M584.53,1969.47v-74.59a31.227,31.227,0,0,1,3.93-15.77,29.03,29.03,0,0,1,10.65-10.82,29.532,29.532,0,0,1,15.24-3.94h34.24v14.26H616.15q-7.215,0-11.55,4.61a16.319,16.319,0,0,0-4.34,11.66v21.57H649.1v13.13H600.26v39.89Z"/>
      <path id="Caminho_12" data-name="Caminho 12" d="M566.62,1882.7a36.278,36.278,0,0,0-13.92-13.35,39.876,39.876,0,0,0-19.42-4.77H485.54v13.75h45.79a27.352,27.352,0,0,1,12.54,2.91,22.145,22.145,0,0,1,9.06,8.33,24.838,24.838,0,0,1,3.32,13.19,24.424,24.424,0,0,1-3.4,13.11,22.078,22.078,0,0,1-9.06,8.33,27.8,27.8,0,0,1-12.62,2.83h-30.1v-10.59H485.54v52.79h15.53v-28.44h31.88a40.334,40.334,0,0,0,19.9-4.85,36.356,36.356,0,0,0,13.84-13.43,41.147,41.147,0,0,0-.07-39.81Z"/>
    </g>
    <g id="Grupo_13" data-name="Grupo 13">
      <g id="Grupo_12" data-name="Grupo 12">
        <path id="Caminho_13" data-name="Caminho 13" d="M406.39,2001.53v-.68h6.92a3.9,3.9,0,0,0,2.12-.54,3.535,3.535,0,0,0,1.29-1.4,3.806,3.806,0,0,0,.44-1.74,3.381,3.381,0,0,0-.37-1.56,3.041,3.041,0,0,0-1.13-1.21,3.69,3.69,0,0,0-1.94-.47h-3.35a5.077,5.077,0,0,1-2.4-.51,3.294,3.294,0,0,1-1.41-1.35,3.66,3.66,0,0,1-.46-1.75,3.834,3.834,0,0,1,.46-1.84,3.513,3.513,0,0,1,1.35-1.41,4.184,4.184,0,0,1,2.19-.54h6.68v.68h-6.59a3.094,3.094,0,0,0-2.46.96,3.159,3.159,0,0,0-.84,2.13,2.871,2.871,0,0,0,.87,2.03,3.558,3.558,0,0,0,2.69.91h3a5.317,5.317,0,0,1,2.59.56,3.523,3.523,0,0,1,1.47,1.44,4,4,0,0,1,.47,1.88,4.425,4.425,0,0,1-.53,2.07,4.479,4.479,0,0,1-1.5,1.68,4.085,4.085,0,0,1-2.35.66Z"/>
        <path id="Caminho_14" data-name="Caminho 14" d="M423.25,1983.22a.825.825,0,0,1-.77-.77.685.685,0,0,1,.24-.54.742.742,0,0,1,.53-.22.7.7,0,0,1,.54.22.732.732,0,0,1,.22.54.742.742,0,0,1-.22.53A.655.655,0,0,1,423.25,1983.22Zm-.38,18.31v-15.01h.74v15.01Z"/>
        <path id="Caminho_15" data-name="Caminho 15" d="M428.78,2001.53v-.68h6.92a3.9,3.9,0,0,0,2.12-.54,3.535,3.535,0,0,0,1.29-1.4,3.806,3.806,0,0,0,.44-1.74,3.381,3.381,0,0,0-.37-1.56,3.041,3.041,0,0,0-1.13-1.21,3.69,3.69,0,0,0-1.94-.47h-3.35a5.077,5.077,0,0,1-2.4-.51,3.294,3.294,0,0,1-1.41-1.35,3.659,3.659,0,0,1-.46-1.75,3.834,3.834,0,0,1,.46-1.84,3.513,3.513,0,0,1,1.35-1.41,4.184,4.184,0,0,1,2.19-.54h6.68v.68h-6.59a3.094,3.094,0,0,0-2.46.96,3.159,3.159,0,0,0-.84,2.13,2.871,2.871,0,0,0,.87,2.03,3.558,3.558,0,0,0,2.69.91h3a5.316,5.316,0,0,1,2.59.56,3.522,3.522,0,0,1,1.47,1.44,4,4,0,0,1,.47,1.88,4.425,4.425,0,0,1-.53,2.07,4.479,4.479,0,0,1-1.5,1.68,4.085,4.085,0,0,1-2.35.66Z"/>
        <path id="Caminho_16" data-name="Caminho 16" d="M443.35,1987.2v-.68h9.89v.68Zm6.92,14.33a4.175,4.175,0,0,1-3.13-1.15,4.226,4.226,0,0,1-1.13-3.12v-14.51h.74v14.21a4.055,4.055,0,0,0,.93,2.88,3.635,3.635,0,0,0,2.81,1h2.65v.68h-2.87Z"/>
        <path id="Caminho_17" data-name="Caminho 17" d="M465.21,2001.53a10.453,10.453,0,0,1-4.24-.84,7.006,7.006,0,0,1-3.05-2.5,7.211,7.211,0,0,1-1.13-4.17,9.091,9.091,0,0,1,.82-3.83,7.209,7.209,0,0,1,2.37-2.91,6.145,6.145,0,0,1,3.72-1.12,6.593,6.593,0,0,1,3.5.91,6.292,6.292,0,0,1,2.33,2.47,7.441,7.441,0,0,1,.82,3.53c0,.22,0,.43-.01.63a4.5,4.5,0,0,1-.07.63H457.56a6.056,6.056,0,0,0,1.04,3.58,6.494,6.494,0,0,0,2.74,2.19,9.029,9.029,0,0,0,3.63.74h3.53v.68h-3.29Zm-7.65-7.86h12.01a7.348,7.348,0,0,0-.03-1.46,7.16,7.16,0,0,0-.43-1.79,5.718,5.718,0,0,0-1.02-1.74,5.013,5.013,0,0,0-1.77-1.32,6.387,6.387,0,0,0-2.71-.52,5.255,5.255,0,0,0-2.53.6,6.14,6.14,0,0,0-1.91,1.6,7.316,7.316,0,0,0-1.21,2.21A7.915,7.915,0,0,0,457.56,1993.67Z"/>
        <path id="Caminho_18" data-name="Caminho 18" d="M475.4,2001.53v-9.18a6.719,6.719,0,0,1,.72-3.11,5.7,5.7,0,0,1,2.06-2.24,5.882,5.882,0,0,1,3.19-.84,7.7,7.7,0,0,1,2.15.34,5.42,5.42,0,0,1,2.19,1.28,5.666,5.666,0,0,1,1.49,2.74h.03a5.622,5.622,0,0,1,1.53-2.74,5.555,5.555,0,0,1,2.21-1.28,7.7,7.7,0,0,1,2.15-.34,5.858,5.858,0,0,1,3.19.84,5.6,5.6,0,0,1,2.05,2.24,6.809,6.809,0,0,1,.71,3.11v9.18h-.71v-9.18a5.727,5.727,0,0,0-.69-2.85,5.255,5.255,0,0,0-1.87-1.96,5.106,5.106,0,0,0-2.71-.72,5.433,5.433,0,0,0-2.81.74,5.373,5.373,0,0,0-1.97,1.99,5.518,5.518,0,0,0-.72,2.81v9.18h-.74v-9.18a5.434,5.434,0,0,0-.74-2.81,5.605,5.605,0,0,0-1.97-1.99,5.372,5.372,0,0,0-2.8-.74,5.082,5.082,0,0,0-4.56,2.68,5.858,5.858,0,0,0-.68,2.85v9.18Z"/>
        <path id="Caminho_19" data-name="Caminho 19" d="M511.57,2001.91a7.586,7.586,0,0,1-4.06-1.04,6.737,6.737,0,0,1-2.55-2.84,9.131,9.131,0,0,1-.87-4.03,8.431,8.431,0,0,1,.93-4,7,7,0,0,1,2.65-2.8,7.84,7.84,0,0,1,4.11-1.03,7.281,7.281,0,0,1,3.84,1,7.051,7.051,0,0,1,2.6,2.71,7.875,7.875,0,0,1,.94,3.88v7.77h-.74v-3.91h-.09a7.188,7.188,0,0,1-1.32,1.94,7.59,7.59,0,0,1-2.28,1.68A7.062,7.062,0,0,1,511.57,2001.91Zm0-.65a6.567,6.567,0,0,0,3.49-.94,6.916,6.916,0,0,0,2.46-2.6,7.489,7.489,0,0,0,.88-3.78,7.89,7.89,0,0,0-.82-3.66,6.3,6.3,0,0,0-2.32-2.53,6.57,6.57,0,0,0-3.53-.93,6.792,6.792,0,0,0-3.68.96,6.278,6.278,0,0,0-2.35,2.62,8.4,8.4,0,0,0-.82,3.78,8.108,8.108,0,0,0,.78,3.56,6.106,6.106,0,0,0,2.28,2.57A6.5,6.5,0,0,0,511.57,2001.26Z"/>
        <path id="Caminho_20" data-name="Caminho 20" d="M524.34,2001.53v-.68h6.92a3.9,3.9,0,0,0,2.12-.54,3.535,3.535,0,0,0,1.29-1.4,3.805,3.805,0,0,0,.44-1.74,3.381,3.381,0,0,0-.37-1.56,3.041,3.041,0,0,0-1.13-1.21,3.69,3.69,0,0,0-1.94-.47h-3.35a5.077,5.077,0,0,1-2.4-.51,3.294,3.294,0,0,1-1.41-1.35,3.66,3.66,0,0,1-.46-1.75,3.834,3.834,0,0,1,.46-1.84,3.513,3.513,0,0,1,1.35-1.41,4.184,4.184,0,0,1,2.19-.54h6.68v.68h-6.59a3.094,3.094,0,0,0-2.46.96,3.159,3.159,0,0,0-.84,2.13,2.871,2.871,0,0,0,.87,2.03,3.558,3.558,0,0,0,2.69.91h3a5.316,5.316,0,0,1,2.59.56,3.523,3.523,0,0,1,1.47,1.44,4,4,0,0,1,.47,1.88,4.425,4.425,0,0,1-.53,2.07,4.479,4.479,0,0,1-1.5,1.68,4.085,4.085,0,0,1-2.35.66Z"/>
        <path id="Caminho_21" data-name="Caminho 21" d="M551.68,2007.5v-.68h6.8a4.182,4.182,0,0,0,3.22-1.19,4.616,4.616,0,0,0,1.1-3.28v-4.74h-.09a7.188,7.188,0,0,1-1.32,1.94,7.542,7.542,0,0,1-2.27,1.68,6.959,6.959,0,0,1-3.15.68,7.232,7.232,0,0,1-3.94-1.04,6.843,6.843,0,0,1-2.52-2.83,9.056,9.056,0,0,1-.87-4.02,8.661,8.661,0,0,1,.9-4,6.919,6.919,0,0,1,2.56-2.8,7.348,7.348,0,0,1,3.96-1.03,7.44,7.44,0,0,1,3.87,1,7.181,7.181,0,0,1,2.65,2.71,7.78,7.78,0,0,1,.96,3.88v8.86a4.532,4.532,0,0,1-4.86,4.85h-7Zm4.29-6.26a6.567,6.567,0,0,0,3.49-.94,6.806,6.806,0,0,0,2.44-2.58,8.262,8.262,0,0,0,.05-7.4,6.482,6.482,0,0,0-2.38-2.52,6.726,6.726,0,0,0-3.56-.93,6.412,6.412,0,0,0-3.55.96,6.323,6.323,0,0,0-2.28,2.6,8.53,8.53,0,0,0-.79,3.77,7.9,7.9,0,0,0,.79,3.55,6.207,6.207,0,0,0,2.27,2.54A6.34,6.34,0,0,0,555.97,2001.24Z"/>
        <path id="Caminho_22" data-name="Caminho 22" d="M576.99,2001.53a10.453,10.453,0,0,1-4.24-.84,7.006,7.006,0,0,1-3.05-2.5,7.211,7.211,0,0,1-1.13-4.17,9.091,9.091,0,0,1,.82-3.83,7.208,7.208,0,0,1,2.37-2.91,6.145,6.145,0,0,1,3.72-1.12,6.593,6.593,0,0,1,3.5.91,6.292,6.292,0,0,1,2.33,2.47,7.441,7.441,0,0,1,.82,3.53c0,.22,0,.43-.01.63a4.491,4.491,0,0,1-.07.63H569.34a6.056,6.056,0,0,0,1.04,3.58,6.494,6.494,0,0,0,2.74,2.19,9.029,9.029,0,0,0,3.63.74h3.53v.68h-3.29Zm-7.66-7.86h12.01a7.348,7.348,0,0,0-.03-1.46,7.161,7.161,0,0,0-.43-1.79,5.718,5.718,0,0,0-1.02-1.74,5.014,5.014,0,0,0-1.77-1.32,6.387,6.387,0,0,0-2.71-.52,5.255,5.255,0,0,0-2.53.6,6.14,6.14,0,0,0-1.91,1.6,7.316,7.316,0,0,0-1.21,2.21A7.914,7.914,0,0,0,569.33,1993.67Z"/>
        <path id="Caminho_23" data-name="Caminho 23" d="M586.58,2001.53v-.68h6.92a3.9,3.9,0,0,0,2.12-.54,3.535,3.535,0,0,0,1.29-1.4,3.805,3.805,0,0,0,.44-1.74,3.381,3.381,0,0,0-.37-1.56,3.041,3.041,0,0,0-1.13-1.21,3.69,3.69,0,0,0-1.94-.47h-3.35a5.077,5.077,0,0,1-2.4-.51,3.294,3.294,0,0,1-1.41-1.35,3.66,3.66,0,0,1-.46-1.75,3.834,3.834,0,0,1,.46-1.84,3.513,3.513,0,0,1,1.35-1.41,4.184,4.184,0,0,1,2.19-.54h6.68v.68h-6.59a3.094,3.094,0,0,0-2.46.96,3.159,3.159,0,0,0-.84,2.13,2.871,2.871,0,0,0,.87,2.03,3.558,3.558,0,0,0,2.69.91h3a5.316,5.316,0,0,1,2.59.56,3.522,3.522,0,0,1,1.47,1.44,4,4,0,0,1,.47,1.88,4.425,4.425,0,0,1-.53,2.07,4.479,4.479,0,0,1-1.5,1.68,4.085,4.085,0,0,1-2.35.66Z"/>
        <path id="Caminho_24" data-name="Caminho 24" d="M601.15,1987.2v-.68h9.89v.68Zm6.91,14.33a4.175,4.175,0,0,1-3.13-1.15,4.226,4.226,0,0,1-1.13-3.12v-14.51h.74v14.21a4.055,4.055,0,0,0,.93,2.88,3.636,3.636,0,0,0,2.81,1h2.65v.68h-2.87Z"/>
        <path id="Caminho_25" data-name="Caminho 25" d="M622.07,2001.91a7.586,7.586,0,0,1-4.06-1.04,6.737,6.737,0,0,1-2.55-2.84,9.131,9.131,0,0,1-.87-4.03,8.431,8.431,0,0,1,.93-4,7,7,0,0,1,2.65-2.8,7.84,7.84,0,0,1,4.11-1.03,7.281,7.281,0,0,1,3.84,1,7.051,7.051,0,0,1,2.6,2.71,7.875,7.875,0,0,1,.94,3.88v7.77h-.74v-3.91h-.09a7.188,7.188,0,0,1-1.32,1.94,7.59,7.59,0,0,1-2.28,1.68A7.032,7.032,0,0,1,622.07,2001.91Zm0-.65a6.567,6.567,0,0,0,3.49-.94,6.916,6.916,0,0,0,2.46-2.6,7.489,7.489,0,0,0,.88-3.78,7.89,7.89,0,0,0-.82-3.66,6.3,6.3,0,0,0-2.32-2.53,6.57,6.57,0,0,0-3.53-.93,6.792,6.792,0,0,0-3.68.96,6.278,6.278,0,0,0-2.35,2.62,8.4,8.4,0,0,0-.82,3.78,8.109,8.109,0,0,0,.78,3.56,6.106,6.106,0,0,0,2.28,2.57A6.522,6.522,0,0,0,622.07,2001.26Zm2.33-17.01a2.248,2.248,0,0,1-1.25-.31,2.733,2.733,0,0,1-.79-.76q-.315-.45-.6-.9a4.958,4.958,0,0,0-.74-.94,1.568,1.568,0,0,0-1.15-.41,1.48,1.48,0,0,0-1.15.62,2.764,2.764,0,0,0-.5,1.77v.65h-.71v-.65a3.164,3.164,0,0,1,.74-2.27,2.219,2.219,0,0,1,1.62-.77,2.159,2.159,0,0,1,1.57.53,6.337,6.337,0,0,1,.93,1.15,11.218,11.218,0,0,0,.79,1.13,1.57,1.57,0,0,0,2.42-.1,2.76,2.76,0,0,0,.5-1.8v-.65h.71v.65a3.169,3.169,0,0,1-.75,2.3A2.3,2.3,0,0,1,624.4,1984.25Z"/>
        <path id="Caminho_26" data-name="Caminho 26" d="M641.73,2001.91a7.266,7.266,0,0,1-6.62-3.88,8.733,8.733,0,0,1,0-8,7.525,7.525,0,0,1,13.24-.01,8.773,8.773,0,0,1,0,8.02,7.233,7.233,0,0,1-6.62,3.87Zm0-.67a6.6,6.6,0,0,0,3.55-.96,6.8,6.8,0,0,0,2.43-2.59,8.051,8.051,0,0,0,0-7.32,6.8,6.8,0,0,0-2.43-2.59,7.043,7.043,0,0,0-7.1,0,6.8,6.8,0,0,0-2.43,2.59,8.051,8.051,0,0,0,0,7.32,6.8,6.8,0,0,0,2.43,2.59A6.578,6.578,0,0,0,641.73,2001.24Z"/>
      </g>
    </g>
  </g>
</svg>
